<?xml version="1.0" encoding="UTF-8" standalone="no"?>
<svg
   xmlns:dc="http://purl.org/dc/elements/1.1/"
   xmlns:cc="http://creativecommons.org/ns#"
   xmlns:rdf="http://www.w3.org/1999/02/22-rdf-syntax-ns#"
   xmlns:svg="http://www.w3.org/2000/svg"
   xmlns="http://www.w3.org/2000/svg"
   xmlns:xlink="http://www.w3.org/1999/xlink"
   id="svg8"
   version="1.1"
   viewBox="0 0 10 10"
   height="10mm"
   width="10mm">
  <defs
     id="defs2" />
  <metadata
     id="metadata5">
    <rdf:RDF>
      <cc:Work
         rdf:about="">
        <dc:format>image/svg+xml</dc:format>
        <dc:type
           rdf:resource="http://purl.org/dc/dcmitype/StillImage" />
        <dc:title></dc:title>
      </cc:Work>
    </rdf:RDF>
  </metadata>
  <g
     transform="translate(-0.18948667,-2.1916432)"
     id="layer1">
    <rect
       ry="0"
       y="3.2366838"
       x="0.46974346"
       height="7.9861646"
       width="6.8124394"
       id="rect41"
       style="color:#000000;display:inline;overflow:visible;visibility:visible;opacity:1;fill:#ffff00;fill-opacity:1;fill-rule:nonzero;stroke:none;stroke-width:0.78138363;stroke-linecap:round;stroke-miterlimit:4;stroke-dasharray:none;stroke-dashoffset:0;stroke-opacity:1;marker:none;enable-background:accumulate" />
    <path
       d="m 5.1894866,2.8103147 c 0.321107,0 1.1613283,2.6907403 1.4211094,2.8794822 0.259781,0.188742 3.0784698,0.1563557 3.1776973,0.4617466 0.099228,0.3053909 -2.2001759,1.9359733 -2.2994034,2.2413642 -0.099228,0.3053909 0.8025964,2.9761153 0.5428154,3.1648573 -0.259781,0.188742 -2.5211118,-1.494243 -2.8422188,-1.494243 -0.321107,0 -2.582438,1.682985 -2.842219,1.494243 -0.259781,-0.188742 0.6420431,-2.8594664 0.5428156,-3.1648573 -0.099228,-0.3053909 -2.39863088,-1.9359735 -2.29940336,-2.2413644 0.0992275,-0.3053909 2.91791626,-0.2730044 3.17769726,-0.4617464 0.2597811,-0.1887419 1.1000026,-2.8794822 1.4211096,-2.8794822 z"
       id="path12"
       style="color:#000000;display:inline;overflow:visible;visibility:visible;opacity:1;fill:none;fill-opacity:1;fill-rule:nonzero;stroke:#806600;stroke-width:0.79277271;stroke-linecap:round;stroke-miterlimit:4;stroke-dasharray:none;stroke-dashoffset:0;stroke-opacity:1;marker:none;enable-background:accumulate" />
    <g
       transform="matrix(0.79277269,0,0,0.79277269,2.1225998,2.3041559)"
       id="g39">
      <use
         x="0"
         y="0"
         xlink:href="#path16"
         id="use28"
         transform="matrix(-1,0,0,1,12.99293,0)"
         width="100%"
         height="100%" />
      <use
         x="0"
         y="0"
         xlink:href="#path16"
         id="use30"
         width="100%"
         height="100%"
         transform="matrix(1,0,0,-1,0,12.4063)" />
      <use
         x="0"
         y="0"
         xlink:href="#path16"
         id="use32"
         transform="rotate(-180,6.4964648,6.2031501)"
         width="100%"
         height="100%" />
      <path
         style="color:#000000;display:inline;overflow:visible;visibility:visible;opacity:1;fill:#ffff00;fill-opacity:1;fill-rule:nonzero;stroke:#000000;stroke-width:1;stroke-linecap:round;stroke-miterlimit:4;stroke-dasharray:none;stroke-dashoffset:0;stroke-opacity:1;marker:none;enable-background:accumulate"
         d="m 6.4964648,1.1563011 v 10.0936979"
         id="path26" />
      <path
         style="color:#000000;display:inline;overflow:visible;visibility:visible;opacity:1;fill:#ffff00;fill-opacity:1;fill-rule:nonzero;stroke:#000000;stroke-width:1;stroke-linecap:round;stroke-miterlimit:4;stroke-dasharray:none;stroke-dashoffset:0;stroke-opacity:1;marker:none;enable-background:accumulate"
         d="m 6.4964648,11.249999 c -0.5717563,0.121686 -0.5950134,0.260081 -1.4123141,0.254648"
         id="path16" />
    </g>
  </g>
</svg>
